<svg
              viewBox="0 0 24 24"
              fill="none"
              xmlns="http://www.w3.org/2000/svg"
            >
              <g clipPath="url(#clip0_9848_9409)">
                <path
                  d="M0.77 15C0.541 15 0.335 14.842 0.283 14.61C0.095 13.778 0 12.9 0 12C0 5.383 5.383 0 12 0C15.8 0 19.409 1.83 21.653 4.895C21.816 5.118 21.768 5.431 21.545 5.594C21.322 5.757 21.009 5.709 20.846 5.486C18.79 2.677 15.482 1 12 1C5.935 1 1 5.935 1 12C1 12.827 1.087 13.631 1.258 14.39C1.319 14.66 1.15 14.927 0.88 14.988C0.843 14.996 0.806 15 0.77 15Z"
                  fill="#007BFF"
                />
                <path
                  d="M11.9996 24C8.19962 24 4.59062 22.17 2.34662 19.105C2.18362 18.882 2.23162 18.569 2.45462 18.406C2.67662 18.242 2.98962 18.291 3.15362 18.514C5.20962 21.323 8.51762 23 11.9996 23C18.0646 23 22.9996 18.065 22.9996 12C22.9996 11.162 22.9106 10.359 22.7336 9.61604C22.6696 9.34704 22.8356 9.07704 23.1046 9.01404C23.3756 8.94904 23.6436 9.11604 23.7066 9.38504C23.9006 10.204 23.9996 11.084 23.9996 12C23.9996 18.617 18.6166 24 11.9996 24Z"
                  fill="#007BFF"
                />
                <path
                  d="M2.54981 22C2.27781 22 2.05481 21.782 2.04981 21.508L1.99981 18.508C1.99781 18.374 2.04881 18.245 2.14381 18.149C2.23681 18.054 2.36581 18 2.49981 18H5.49981C5.77581 18 5.99981 18.224 5.99981 18.5C5.99981 18.776 5.77581 19 5.49981 19H3.00781L3.04981 21.492C3.05481 21.768 2.83481 21.995 2.55881 22C2.55581 22 2.55281 22 2.54981 22Z"
                  fill="#007BFF"
                />
                <path
                  d="M21.5 6.00012H18.5C18.224 6.00012 18 5.77612 18 5.50012C18 5.22412 18.224 5.00012 18.5 5.00012H21V2.50012C21 2.22412 21.224 2.00012 21.5 2.00012C21.776 2.00012 22 2.22412 22 2.50012V5.50012C22 5.77612 21.776 6.00012 21.5 6.00012Z"
                  fill="#007BFF"
                />
                <path
                  d="M12 20.0002C11.934 20.0002 11.868 19.9872 11.806 19.9602C11.568 19.8612 6 17.4543 6 12.5363V8.35725C6 8.14325 6.137 7.95225 6.34 7.88325L11.84 6.02625C11.944 5.99125 12.056 5.99125 12.16 6.02625L17.66 7.88325C17.863 7.95225 18 8.14325 18 8.35725V12.5363C18 17.4543 12.432 19.8612 12.194 19.9613C12.132 19.9873 12.066 20.0002 12 20.0002ZM7 8.71625V12.5363C7 16.3212 11.055 18.4943 12 18.9503C12.944 18.4933 17 16.3123 17 12.5363V8.71625L12 7.02825L7 8.71625Z"
                  fill="#007BFF"
                />
                <path
                  d="M11.5002 15.0002C11.4912 15.0002 11.4812 15.0002 11.4722 14.9992C11.3302 14.9912 11.1982 14.9232 11.1092 14.8122L9.10921 12.3122C8.93721 12.0962 8.97221 11.7823 9.18721 11.6093C9.40321 11.4373 9.71821 11.4723 9.89021 11.6873L11.5412 13.7512L14.6462 10.6462C14.8412 10.4513 15.1582 10.4513 15.3532 10.6462C15.5482 10.8412 15.5482 11.1582 15.3532 11.3532L11.8532 14.8532C11.7602 14.9482 11.6322 15.0002 11.5002 15.0002Z"
                  fill="#007BFF"
                />
              </g>
              <defs>
                <clipPath id="clip0_9848_9409">
                  <rect width="24" height="24" fill="white" />
                </clipPath>
              </defs>
            </svg>