<svg
              viewBox="0 0 24 24"
              fill="none"
              xmlns="http://www.w3.org/2000/svg"
            >
              <path
                d="M12.0001 0.000976562C5.3832 0.000976562 0 5.3841 0 12.0009C0 18.6177 5.3832 24.0008 12.0001 24.0008C18.6169 24.0008 24 18.6177 24 12.0009C24 5.3841 18.6169 0.000976562 12.0001 0.000976562ZM12.0001 22.0336C6.46792 22.0336 1.9672 17.5331 1.9672 12.0009C1.9672 6.46881 6.46792 1.96818 12.0001 1.96818C17.5322 1.96818 22.0328 6.46881 22.0328 12.0009C22.0328 17.5331 17.5322 22.0336 12.0001 22.0336Z"
                fill="#FF073A"
              />
              <path
                d="M17.1905 7.39431L10.0657 14.5193L6.80813 11.2617C6.42398 10.8777 5.80124 10.8777 5.41709 11.2617C5.03301 11.6459 5.03301 12.2686 5.41709 12.6528L9.37013 16.6058C9.56221 16.7978 9.81394 16.8939 10.0657 16.8939C10.3174 16.8939 10.5691 16.7978 10.7612 16.6058L18.5816 8.78544C18.9657 8.40128 18.9657 7.77854 18.5816 7.39439C18.1974 7.01023 17.5746 7.01023 17.1905 7.39431Z"
                fill="#FF073A"
              />
            </svg>