<svg
              viewBox="0 0 24 24"
              fill="none"
              xmlns="http://www.w3.org/2000/svg"
            >
              <path
                d="M19.2754 14.7082L18.8136 13.0827C21.8158 5.61159 19.0761 0.372603 16.2971 0.774697C15.4212 -0.140725 14.1558 -0.24385 12.4381 0.458572C11.9792 0.646072 12.2623 1.34076 12.7219 1.15279C15.5484 -0.00286546 15.6422 1.69579 16.2477 1.54771C18.6794 0.951603 20.7272 6.16068 18.1757 12.6583C16.1314 12.3747 15.9862 11.0646 15.459 11.5887C15.3885 11.6588 15.3487 11.754 15.3484 11.8535C15.3481 11.9529 15.3874 12.0484 15.4575 12.119C16.1719 12.8377 17.0689 13.2699 18.1262 13.4075L18.5262 14.8154C15.1831 17.9432 13.5883 17.5358 13.9049 18.2958C13.9238 18.3412 13.9515 18.3825 13.9864 18.4173C14.0213 18.452 14.0627 18.4796 14.1083 18.4983C14.1538 18.5171 14.2026 18.5267 14.2518 18.5266C14.3011 18.5265 14.3498 18.5167 14.3953 18.4977C16.4959 17.6226 18.3333 16.0204 18.9742 15.4244C24.8268 20.0305 22.4125 23.9999 23.6261 23.9999C23.7255 23.9999 23.8209 23.9604 23.8912 23.8901C23.9615 23.8197 24.0011 23.7244 24.0011 23.6249C24.0011 19.6954 22.3265 17.0593 19.2754 14.7082Z"
                fill="#6C757D"
              />
              <path
                d="M16.3639 8.57774C15.7148 6.29291 13.1905 7.01366 13.7364 8.93446C13.8719 9.41136 14.5935 9.20703 14.4578 8.72942C14.1793 7.74894 15.2732 7.48293 15.6425 8.78272C15.8663 9.5705 15.7553 10.31 14.9703 10.5331C14.4929 10.6687 14.6979 11.39 15.1753 11.2545C16.3677 10.9157 16.7093 9.79339 16.3639 8.57774Z"
                fill="#6C757D"
              />
              <path
                d="M13.2305 15.3858C13.6153 16.4733 13.5385 17.2474 14.1037 17.0869C14.151 17.0735 14.1953 17.0508 14.2339 17.0202C14.2725 16.9897 14.3047 16.9518 14.3287 16.9088C14.3527 16.8658 14.368 16.8185 14.3737 16.7696C14.3793 16.7206 14.3753 16.6711 14.3619 16.6237L13.8494 14.8201C13.8359 14.7727 13.8133 14.7285 13.7827 14.6899C13.7522 14.6512 13.7143 14.619 13.6713 14.595C13.6283 14.5711 13.5809 14.5558 13.532 14.5501C13.4831 14.5444 13.4336 14.5484 13.3862 14.5619C10.8216 15.2093 10.5409 15.5669 9.96806 15.2476C9.86033 15.1879 9.7655 15.1075 9.68907 15.0109C9.61263 14.9144 9.5561 14.8036 9.52275 14.6851C9.04701 13.2085 9.15009 12.9014 8.80261 12.8034L7.82798 12.5286C8.60104 10.368 8.64707 11.7399 7.86548 8.85253C9.00539 8.95181 9.66698 8.54274 12.6233 7.76166C13.101 7.62595 12.8952 6.90469 12.4183 7.04025L9.06253 7.9936C6.90787 8.56495 5.55211 7.02047 4.82034 4.93608C6.13523 5.2057 7.71722 4.03908 10.1356 2.54433C10.5578 2.28342 10.1632 1.6456 9.74123 1.90641C7.39434 3.357 5.37445 4.83708 4.49831 3.97594C4.25428 3.69328 3.77456 3.91725 3.85584 4.30716C4.20712 5.99231 5.31065 8.0625 7.03481 8.67319L7.67147 10.9138C6.71611 13.4352 6.49022 12.8645 8.39718 13.4681C8.77317 14.4938 8.6864 15.3917 9.60267 15.9025C9.79601 16.011 10.009 16.0801 10.2292 16.1057C10.4494 16.1313 10.6725 16.113 10.8856 16.0518L13.2305 15.3858Z"
                fill="#6C757D"
              />
              <path
                d="M18.7278 17.6157C18.3831 17.617 18.0419 17.6862 17.724 17.8193C17.406 17.9525 17.1173 18.1471 16.8745 18.3918C16.6318 18.6366 16.4396 18.9269 16.3091 19.2459C16.1786 19.565 16.1122 19.9067 16.1138 20.2515L16.1263 23.6265C16.1281 24.1265 16.8781 24.1219 16.8763 23.6237L16.8638 20.2487C16.8617 19.7514 17.0572 19.2736 17.4074 18.9205C17.7576 18.5674 18.2336 18.3679 18.7309 18.3658C19.2282 18.3637 19.7059 18.5592 20.0591 18.9094C20.4122 19.2595 20.6117 19.7356 20.6138 20.2329L20.6263 23.6079C20.6266 23.7071 20.6663 23.8022 20.7366 23.8722C20.8069 23.9422 20.902 23.9815 21.0013 23.9815C21.006 23.9794 21.3776 23.965 21.3763 23.6051L21.3638 20.2301C21.3601 19.5341 21.0806 18.868 20.5864 18.3779C20.0922 17.8878 19.4238 17.6137 18.7278 17.6157Z"
                fill="#6C757D"
              />
              <path
                d="M12.8071 19.9337L12.7701 19.8449C13.0203 18.4492 13.5784 17.7359 12.9892 16.9814C12.6489 16.5454 11.8267 16.2714 11.6501 16.7427C10.4756 19.9314 10.471 19.7602 10.5085 19.9479C11.3069 23.3809 11.071 23.9995 11.6259 23.9994C11.6814 23.9994 11.7362 23.9872 11.7864 23.9635C11.8366 23.9398 11.881 23.9052 11.9162 23.8623C11.9514 23.8193 11.9766 23.7691 11.9901 23.7153C12.0036 23.6614 12.0049 23.6052 11.994 23.5508L11.2649 19.9057L12.2389 17.3086C12.7545 17.5852 12.3859 18.0641 12.0125 19.7836C11.9596 19.9945 12.0359 19.9687 12.78 21.8215C12.8133 21.9016 12.8734 21.9676 12.9499 22.0084C13.0264 22.0492 13.1147 22.0622 13.1997 22.0452C13.6948 21.9463 13.4275 21.3172 13.5013 20.3433C13.5013 19.7134 14.2513 19.7131 14.2513 20.3433C14.2513 22.5947 14.342 22.6284 13.6111 23.3594C13.2605 23.7099 13.7903 24.2406 14.1414 23.8897C15.1266 22.9044 15.0013 22.5338 15.0013 20.3431C15.0013 18.8827 13.1612 18.7241 12.8071 19.9337Z"
                fill="#6C757D"
              />
              <path
                d="M9.75102 12.3748C10.2468 12.3748 10.2475 11.6248 9.75102 11.6248C9.25522 11.6248 9.25452 12.3748 9.75102 12.3748Z"
                fill="#6C757D"
              />
              <path
                d="M0.376018 14.9998C-0.119779 14.9998 -0.120482 15.7498 0.376018 15.7498C0.872518 15.7498 0.872518 14.9998 0.376018 14.9998Z"
                fill="#6C757D"
              />
              <path
                d="M1.87628 15.7498C2.37208 15.7498 2.37278 14.9998 1.87628 14.9998C1.37978 14.9998 1.37978 15.7498 1.87628 15.7498Z"
                fill="#6C757D"
              />
              <path
                d="M3.37602 15.7498C3.87181 15.7498 3.87252 14.9998 3.37602 14.9998C2.88022 14.9998 2.87952 15.7498 3.37602 15.7498Z"
                fill="#6C757D"
              />
              <path
                d="M7.50098 16.8748C7.50098 17.3706 8.25098 17.3713 8.25098 16.8748C8.25098 16.3783 7.50098 16.3783 7.50098 16.8748Z"
                fill="#6C757D"
              />
              <path
                d="M11.251 12.3748C11.7468 12.3748 11.7475 11.6248 11.251 11.6248C10.7552 11.6248 10.7545 12.3748 11.251 12.3748Z"
                fill="#6C757D"
              />
              <path
                d="M16.126 15.3755C16.126 14.8797 15.376 14.879 15.376 15.3755C15.376 15.872 16.126 15.872 16.126 15.3755Z"
                fill="#6C757D"
              />
              <path
                d="M14.626 14.2498C14.626 14.7456 15.376 14.7463 15.376 14.2498C15.376 13.7533 14.626 13.7533 14.626 14.2498Z"
                fill="#6C757D"
              />
              <path
                d="M13.501 13.1248C13.501 13.6206 14.251 13.6213 14.251 13.1248C14.251 12.6283 13.501 12.6283 13.501 13.1248Z"
                fill="#6C757D"
              />
              <path
                d="M12.7513 12.7498C13.2471 12.7498 13.2478 11.9998 12.7513 11.9998C12.2548 11.9998 12.2548 12.7498 12.7513 12.7498Z"
                fill="#6C757D"
              />
              <path
                d="M11.251 1.87476C11.7468 1.87476 11.7475 1.12476 11.251 1.12476C10.7552 1.12476 10.7545 1.87476 11.251 1.87476Z"
                fill="#6C757D"
              />
              <path
                d="M3.00098 14.2498H6.37598C6.87173 14.2498 6.87248 13.4998 6.37598 13.4998H3.00098C2.80214 13.4995 2.61151 13.4204 2.47091 13.2798C2.33031 13.1392 2.25121 12.9486 2.25098 12.7498C2.25098 11.7571 3.75098 11.7583 3.75098 12.7498C3.75098 12.8492 3.79049 12.9446 3.86081 13.0149C3.93114 13.0852 4.02652 13.1248 4.12598 13.1248C4.9138 13.1248 4.43066 11.2498 3.00098 11.2498C2.60315 11.2498 2.22162 11.4078 1.94032 11.6891C1.65901 11.9704 1.50098 12.3519 1.50098 12.7498C1.50098 13.1476 1.65901 13.5291 1.94032 13.8104C2.22162 14.0917 2.60315 14.2498 3.00098 14.2498Z"
                fill="#6C757D"
              />
              <path
                d="M6.37598 16.4998H3.00098C2.70431 16.4998 2.4143 16.5877 2.16762 16.7526C1.92095 16.9174 1.72869 17.1516 1.61516 17.4257C1.50163 17.6998 1.47192 18.0014 1.5298 18.2924C1.58768 18.5834 1.73054 18.8506 1.94032 19.0604C2.1501 19.2702 2.41737 19.4131 2.70834 19.4709C2.99931 19.5288 3.30091 19.4991 3.575 19.3856C3.84909 19.272 4.08336 19.0798 4.24818 18.8331C4.413 18.5864 4.50098 18.2964 4.50098 17.9998C4.50098 17.504 3.75098 17.5033 3.75098 17.9998C3.75098 18.9924 2.25098 18.9912 2.25098 17.9998C2.25121 17.8009 2.33031 17.6103 2.47091 17.4697C2.61151 17.3291 2.80214 17.25 3.00098 17.2498H6.37598C6.87173 17.2498 6.87248 16.4998 6.37598 16.4998Z"
                fill="#6C757D"
              />
              <path
                d="M7.876 14.9998H4.876C4.38025 14.9998 4.3795 15.7498 4.876 15.7498H7.876C8.37175 15.7498 8.3725 14.9998 7.876 14.9998Z"
                fill="#6C757D"
              />
            </svg>