<svg width="242" height="162" viewBox="0 0 242 162" fill="none" xmlns="http://www.w3.org/2000/svg">
<path d="M240.121 122.859H214.676C220.324 99.7338 217.502 75.3497 206.722 54.1267H224.768C225.015 54.1268 225.259 54.0783 225.487 53.9839C225.715 53.8895 225.922 53.7511 226.097 53.5765C226.271 53.402 226.41 53.1948 226.504 52.9667C226.598 52.7386 226.647 52.4941 226.647 52.2473C226.647 51.7488 226.449 51.2708 226.097 50.9184C225.744 50.5659 225.266 50.3679 224.768 50.3679H204.699C187.669 20.2975 155.389 0 118.37 0C93.7466 0 71.2214 8.97923 53.8842 23.8415H23.3518C22.8536 23.8418 22.3759 24.0399 22.0236 24.3923C21.6713 24.7447 21.4732 25.2226 21.4729 25.7209C21.4729 25.9677 21.5215 26.2121 21.616 26.4401C21.7104 26.6682 21.8488 26.8753 22.0232 27.0499C22.1977 27.2244 22.4049 27.3628 22.6328 27.4573C22.8608 27.5517 23.1051 27.6003 23.3518 27.6003H49.7399C47.6327 29.6229 45.6167 31.735 43.6921 33.9366H1.87888C1.38066 33.9369 0.902921 34.135 0.550624 34.4874C0.198327 34.8397 0.000284455 35.3176 0 35.816C0 36.3144 0.197951 36.7925 0.55031 37.1449C0.902668 37.4974 1.38057 37.6954 1.87888 37.6954H40.5667C27.1998 54.5971 19.2183 75.9546 19.2183 99.1786C19.2032 111.776 21.5941 124.261 26.2625 135.961H21.3119C20.8137 135.961 20.3359 136.159 19.9836 136.512C19.6313 136.864 19.4333 137.342 19.433 137.84C19.433 138.339 19.631 138.817 19.9833 139.169C20.3357 139.522 20.8136 139.72 21.3119 139.72H27.8547C28.5382 141.244 29.2587 142.748 30.0159 144.23H7.78394C7.28572 144.231 6.80798 144.429 6.45568 144.781C6.10338 145.134 5.90534 145.611 5.90506 146.11C5.90506 146.608 6.10301 147.086 6.45537 147.439C6.80773 147.791 7.28563 147.989 7.78394 147.989H32.0387C34.3496 152.07 36.9468 155.982 39.8108 159.695H196.928C202.306 152.724 206.73 145.068 210.085 136.928H228.526C228.773 136.928 229.017 136.879 229.245 136.785C229.473 136.69 229.68 136.552 229.855 136.378C230.029 136.203 230.168 135.996 230.262 135.768C230.356 135.54 230.405 135.295 230.405 135.048C230.405 134.55 230.207 134.072 229.854 133.719C229.502 133.367 229.024 133.169 228.526 133.169H211.543C212.33 131.021 213.041 128.837 213.676 126.618H240.121C240.368 126.618 240.612 126.569 240.84 126.475C241.068 126.381 241.275 126.242 241.45 126.068C241.624 125.893 241.763 125.686 241.857 125.458C241.952 125.23 242 124.985 242 124.738C242 124.24 241.802 123.762 241.45 123.409C241.097 123.057 240.619 122.859 240.121 122.859Z" fill="#F9F8F8" fill-opacity="0.1"/>
<path d="M160.042 159.689H148.03C148.03 159.273 148.195 158.873 148.49 158.579C148.784 158.284 149.183 158.119 149.6 158.119H158.471C158.888 158.119 159.287 158.284 159.582 158.579C159.876 158.873 160.042 159.272 160.042 159.689Z" fill="#F2F2F2"/>
<path d="M157.196 158.119H150.875L152.929 99.5522L154.31 100.47L157.196 158.119Z" fill="#F2F2F2"/>
<path d="M159.148 159.689H147.137C147.137 159.483 147.177 159.279 147.256 159.088C147.335 158.898 147.451 158.724 147.596 158.579C147.742 158.433 147.915 158.317 148.106 158.238C148.296 158.159 148.5 158.119 148.707 158.119H157.578C157.995 158.119 158.394 158.284 158.688 158.579C158.983 158.873 159.148 159.273 159.148 159.689Z" fill="#F2F2F2"/>
<path d="M153.141 100.07L183.366 117.525L183.036 115.807C182.971 115.468 182.784 115.164 182.511 114.953L162.766 99.6641C162.588 99.5261 162.379 99.4325 162.158 99.3913C161.936 99.35 161.708 99.3621 161.492 99.4267L157.531 100.608C157.346 100.663 157.151 100.68 156.96 100.658C156.768 100.635 156.583 100.574 156.416 100.477L153.784 98.9639L153.141 100.07Z" fill="#F2F2F2"/>
<path d="M152.501 98.9639L122.277 116.419L123.927 116.99C124.255 117.104 124.613 117.094 124.934 116.963L148.038 107.505C148.248 107.419 148.434 107.285 148.581 107.112C148.728 106.94 148.833 106.735 148.885 106.515L149.838 102.498C149.884 102.309 149.967 102.132 150.082 101.976C150.198 101.821 150.345 101.69 150.513 101.593L153.142 100.074L152.501 98.9639Z" fill="#F2F2F2"/>
<path d="M153.783 98.9637V64.0498L152.461 65.1935C152.199 65.4203 152.029 65.7344 151.982 66.0774L148.618 90.8232C148.588 91.0469 148.611 91.2746 148.686 91.4876C148.76 91.7007 148.884 91.8929 149.048 92.0486L152.054 94.8859C152.195 95.0189 152.307 95.1792 152.383 95.357C152.46 95.5349 152.5 95.7265 152.5 95.9201V98.9637H153.783Z" fill="#F2F2F2"/>
<path d="M156.043 158.119H150.242L152.296 99.5522H153.989L156.043 158.119Z" fill="#F2F2F2"/>
<path d="M154.576 99.885C154.765 99.0861 154.27 98.2856 153.472 98.0971C152.673 97.9086 151.873 98.4034 151.685 99.2024C151.496 100.001 151.991 100.802 152.789 100.99C153.588 101.179 154.388 100.684 154.576 99.885Z" fill="#F2F2F2"/>
<path d="M153.04 100.82C153.788 100.82 154.395 100.213 154.395 99.4642C154.395 98.7157 153.788 98.1089 153.04 98.1089C152.292 98.1089 151.686 98.7157 151.686 99.4642C151.686 100.213 152.292 100.82 153.04 100.82Z" fill="#F2F2F2"/>
<path d="M122.812 116.6L151.686 99.4642L151.66 99.4448L122.277 116.414L122.812 116.6Z" fill="#F2F2F2"/>
<path d="M156.043 157.739H150.255V158.119H156.043V157.739Z" fill="#F2F2F2"/>
<path d="M153.354 64.4214L153.751 98.2388L153.783 98.2259V64.0498L153.354 64.4214Z" fill="#F2F2F2"/>
<path d="M183.26 116.967L153.987 100.523L153.983 100.555L183.366 117.525L183.26 116.967Z" fill="#F2F2F2"/>
<path d="M199.504 159.69H180.274C180.274 159.359 180.338 159.032 180.464 158.726C180.591 158.421 180.776 158.143 181.009 157.909C181.243 157.675 181.52 157.49 181.825 157.363C182.131 157.237 182.458 157.171 182.788 157.171H196.991C197.321 157.171 197.648 157.236 197.953 157.363C198.258 157.489 198.535 157.675 198.768 157.908C199.002 158.142 199.187 158.419 199.313 158.724C199.439 159.029 199.504 159.356 199.504 159.687V159.69Z" fill="#ECECEC"/>
<path d="M194.948 157.175H184.829L188.118 63.4111L190.328 64.8803L194.948 157.175Z" fill="#ECECEC"/>
<path d="M198.074 159.69H178.844C178.844 159.36 178.909 159.033 179.035 158.728C179.161 158.422 179.346 158.145 179.58 157.912C179.813 157.678 180.09 157.493 180.395 157.366C180.7 157.24 181.027 157.175 181.357 157.175H195.565C196.232 157.175 196.871 157.44 197.343 157.911C197.814 158.383 198.079 159.023 198.079 159.69H198.074Z" fill="#F2F2F2"/>
<path d="M188.458 64.2399L236.847 92.1849L236.257 89.1177C236.193 88.7767 236.006 88.471 235.732 88.2586L203.523 63.3163C203.344 63.1782 203.135 63.0846 202.914 63.0433C202.692 63.002 202.463 63.0142 202.247 63.0789L195.135 65.2096C194.95 65.2648 194.756 65.2818 194.564 65.2594C194.372 65.2371 194.187 65.1759 194.02 65.0797L189.487 62.4614L188.458 64.2399Z" fill="#F2F2F2"/>
<path d="M187.432 62.4614L139.044 90.4065L141.993 91.4289C142.32 91.5417 142.677 91.5318 142.997 91.4009L181.371 75.6924L183.396 67.1631L188.458 64.2399L187.432 62.4614Z" fill="#F2F2F2"/>
<path d="M189.484 62.4618V6.57275L187.122 8.61324C186.86 8.83957 186.69 9.15398 186.644 9.4971L181.156 49.8687C181.125 50.0926 181.148 50.3205 181.223 50.5337C181.297 50.747 181.421 50.9394 181.585 51.0952L186.979 56.191C187.12 56.324 187.232 56.4843 187.309 56.6621C187.386 56.8399 187.425 57.0315 187.426 57.2252V62.4586L189.484 62.4618Z" fill="#F2F2F2"/>
<path d="M193.103 157.175H183.815L187.103 63.4111H189.813L193.103 157.175Z" fill="#F2F2F2"/>
<path d="M190.655 64.3212C191.158 63.1074 190.582 61.7159 189.368 61.2131C188.155 60.7104 186.764 61.2868 186.261 62.5005C185.758 63.7143 186.335 65.1058 187.548 65.6086C188.761 66.1113 190.152 65.5349 190.655 64.3212Z" fill="#ECECEC"/>
<path d="M190.299 64.1014C190.758 62.9945 190.232 61.7255 189.126 61.267C188.019 60.8085 186.75 61.3342 186.292 62.4411C185.834 63.548 186.359 64.817 187.466 65.2755C188.572 65.734 189.841 65.2084 190.299 64.1014Z" fill="#F2F2F2"/>
<path d="M139.901 90.7043L186.127 63.2715L186.086 63.2393L139.044 90.4068L139.901 90.7043Z" fill="#ECECEC"/>
<path d="M193.103 156.566H183.836V157.174H193.103V156.566Z" fill="#ECECEC"/>
<path d="M188.799 7.16879L189.435 61.3084L189.483 61.289V6.57275L188.799 7.16879Z" fill="#ECECEC"/>
<path d="M236.674 91.2929L189.811 64.9663L189.804 65.0179L236.846 92.1854L236.674 91.2929Z" fill="#ECECEC"/>
<path d="M56.7411 77.1105C56.7411 70.891 51.7009 65.8491 45.4834 65.8491C39.2659 65.8491 34.2257 70.891 34.2257 77.1105V103.031C34.2257 109.251 39.2659 114.293 45.4834 114.293C51.7009 114.293 56.7411 109.251 56.7411 103.031V77.1105Z" fill="#F2F2F2"/>
<path d="M46.0981 159.749H44.8703V83.8599C44.8703 83.697 44.935 83.5407 45.0501 83.4255C45.1652 83.3103 45.3214 83.2456 45.4842 83.2456C45.647 83.2456 45.8032 83.3103 45.9183 83.4255C46.0335 83.5407 46.0981 83.697 46.0981 83.8599V159.749Z" fill="#E4E4E4"/>
<path d="M46.0982 94.1451L42.6829 88.2277C42.6015 88.0865 42.4673 87.9836 42.31 87.9414C42.1526 87.8992 41.985 87.9212 41.8439 88.0027C41.7028 88.0842 41.5998 88.2183 41.5576 88.3757C41.5154 88.5331 41.5375 88.7008 41.6189 88.842L45.0342 94.7594L46.0982 94.1451Z" fill="#E4E4E4"/>
<path d="M45.9332 101.219L49.3485 95.3015C49.392 95.2315 49.4211 95.1536 49.4339 95.0722C49.4467 94.9908 49.443 94.9076 49.4231 94.8277C49.4031 94.7478 49.3673 94.6727 49.3177 94.6069C49.2681 94.5411 49.2058 94.4859 49.1345 94.4447C49.0632 94.4035 48.9843 94.377 48.9025 94.3669C48.8208 94.3568 48.7378 94.3633 48.6586 94.3859C48.5794 94.4085 48.5056 94.4469 48.4415 94.4986C48.3774 94.5504 48.3244 94.6145 48.2856 94.6872L44.8703 100.605L45.9332 101.219Z" fill="#E4E4E4"/>
<path d="M88.5275 54.7409C88.5275 46.8435 82.1272 40.4414 74.2319 40.4414C66.3367 40.4414 59.9363 46.8435 59.9363 54.7409V87.6584C59.9363 95.5558 66.3367 101.958 74.2319 101.958C82.1272 101.958 88.5275 95.5558 88.5275 87.6584V54.7409Z" fill="#F2F2F2"/>
<path d="M75.0109 159.677H73.4525V63.3091C73.4525 63.1022 73.5346 62.9038 73.6807 62.7574C73.8268 62.611 74.025 62.5286 74.2317 62.5283C74.4385 62.5286 74.6367 62.611 74.7828 62.7574C74.9289 62.9038 75.0109 63.1022 75.0109 63.3091V159.677Z" fill="#E4E4E4"/>
<path d="M75.0112 76.373L70.6747 68.8554C70.6235 68.7667 70.5554 68.689 70.4742 68.6266C70.3929 68.5642 70.3002 68.5185 70.2013 68.4919C70.1024 68.4654 69.9993 68.4586 69.8978 68.472C69.7962 68.4853 69.6983 68.5186 69.6097 68.5698C69.521 68.6209 69.4432 68.6891 69.3809 68.7704C69.3185 68.8516 69.2728 68.9443 69.2463 69.0433C69.2198 69.1422 69.213 69.2454 69.2263 69.3469C69.2397 69.4485 69.2729 69.5464 69.3241 69.6351L73.6605 77.1527L75.0112 76.373Z" fill="#E4E4E4"/>
<path d="M74.8032 85.3612L79.1396 77.8436C79.243 77.6644 79.271 77.4516 79.2174 77.2518C79.1639 77.052 79.0331 76.8816 78.854 76.7782C78.6749 76.6749 78.4621 76.6469 78.2624 76.7004C78.0626 76.754 77.8924 76.8848 77.789 77.0639L73.4525 84.5815L74.8032 85.3612Z" fill="#E4E4E4"/>
<path d="M52.4283 155.486C53.0843 154.87 53.3838 154.167 53.1251 153.67C52.803 153.057 51.7293 152.963 50.5902 153.394C50.6482 153.246 50.6976 153.093 50.7523 152.935C51.3622 150.988 51.0132 149.145 49.975 148.819C48.9615 148.497 47.6667 149.744 47.0375 151.612C46.5168 149.473 45.178 147.967 44.0313 148.236C42.9501 148.491 42.4208 150.231 42.7687 152.225C41.1861 151.526 39.6551 151.581 39.172 152.424C38.6684 153.297 39.4533 154.713 40.9478 155.746C40.2392 155.984 39.7517 156.419 39.6852 156.963C39.6036 157.633 40.1769 158.293 41.0874 158.701C41.0369 158.823 41.0249 158.958 41.053 159.087C41.1486 159.491 41.6596 159.74 42.3285 159.767H50.8801V159.76C51.0444 159.738 51.1678 159.668 51.2097 159.557C51.2224 159.517 51.2264 159.474 51.2216 159.432C51.2168 159.391 51.2032 159.35 51.1818 159.314C51.6263 159.271 51.9602 159.099 52.0708 158.802C52.1556 158.573 52.0912 158.309 51.914 158.05C53.0682 157.973 53.954 157.467 53.984 156.816C54.0087 156.243 53.3624 155.724 52.4283 155.486Z" fill="#E4E4E4"/>
<path d="M70.2047 151.896C71.4115 150.761 71.9633 149.467 71.4931 148.555C70.9036 147.426 68.9335 147.253 66.8302 148.048C66.9376 147.774 67.0371 147.491 67.1287 147.201C68.2496 143.62 67.6097 140.233 65.6986 139.635C63.8358 139.051 61.4545 141.334 60.2971 144.765C59.3383 140.832 56.8775 138.06 54.7678 138.558C52.7805 139.025 51.8078 142.224 52.4466 145.892C49.5359 144.603 46.7273 144.71 45.8329 146.259C44.9064 147.863 46.3494 150.47 49.099 152.369C47.7956 152.806 46.8991 153.605 46.7767 154.607C46.6253 155.838 47.6807 157.052 49.3534 157.802C49.2605 158.027 49.2387 158.276 49.2911 158.514C49.4651 159.256 50.4056 159.714 51.6349 159.763H67.3628V159.749C67.6655 159.709 67.891 159.581 67.9683 159.376C67.992 159.302 67.9997 159.224 67.9908 159.147C67.9819 159.07 67.9567 158.996 67.9168 158.929C68.7349 158.85 69.3501 158.527 69.5519 157.986C69.7087 157.566 69.5906 157.08 69.2642 156.604C71.3879 156.461 73.022 155.53 73.0714 154.334C73.1122 153.285 71.9225 152.331 70.2047 151.896Z" fill="#F2F2F2"/>
<path d="M175.935 152.706C174.862 151.697 174.37 150.543 174.794 149.731C175.318 148.727 177.072 148.574 178.946 149.28C178.85 149.037 178.761 148.786 178.679 148.529C177.682 145.34 178.25 142.323 179.953 141.791C181.612 141.271 183.732 143.304 184.763 146.359C185.622 142.858 187.808 140.389 189.686 140.832C191.456 141.247 192.322 144.096 191.753 147.362C194.345 146.217 196.847 146.309 197.643 147.684C198.468 149.114 197.183 151.435 194.735 153.125C195.895 153.515 196.693 154.226 196.803 155.118C196.937 156.215 195.997 157.296 194.507 157.963C194.59 158.164 194.61 158.385 194.563 158.597C194.407 159.258 193.57 159.671 192.475 159.709H178.471V159.698C178.201 159.662 178 159.549 177.934 159.366C177.914 159.3 177.907 159.23 177.915 159.162C177.922 159.093 177.944 159.027 177.979 158.967C177.253 158.897 176.704 158.61 176.525 158.128C176.384 157.754 176.489 157.321 176.78 156.898C174.889 156.771 173.437 155.942 173.391 154.876C173.347 153.943 174.406 153.091 175.935 152.706Z" fill="#EAEAEA"/>
<path d="M191.915 156.893C191.485 156.485 191.282 156.019 191.454 155.692C191.669 155.286 192.374 155.223 193.131 155.509C193.092 155.41 193.056 155.308 193.024 155.204C192.62 153.915 192.851 152.697 193.538 152.482C194.208 152.272 195.065 153.093 195.481 154.328C195.826 152.913 196.712 151.916 197.471 152.094C198.186 152.262 198.536 153.414 198.306 154.733C199.353 154.271 200.364 154.303 200.685 154.865C201.019 155.442 200.499 156.38 199.511 157.063C199.98 157.221 200.302 157.508 200.346 157.868C200.401 158.312 200.024 158.748 199.418 159.019C199.452 159.099 199.46 159.189 199.441 159.274C199.379 159.542 199.04 159.704 198.598 159.723H192.939C192.894 159.722 192.851 159.709 192.813 159.685C192.775 159.662 192.745 159.628 192.724 159.589C192.716 159.562 192.713 159.535 192.716 159.507C192.72 159.479 192.728 159.453 192.742 159.429C192.448 159.4 192.227 159.284 192.155 159.09C192.131 159.004 192.128 158.914 192.147 158.828C192.166 158.741 192.205 158.66 192.262 158.592C191.498 158.541 190.912 158.206 190.892 157.775C190.872 157.393 191.3 157.05 191.915 156.893Z" fill="#E4E4E4"/>
<path d="M123.825 153.112C122.811 152.159 122.349 151.071 122.751 150.308C123.245 149.36 124.899 149.215 126.665 149.878C126.575 149.648 126.491 149.411 126.415 149.167C125.473 146.16 126.011 143.318 127.615 142.816C129.178 142.326 131.177 144.242 132.148 147.122C132.953 143.821 135.019 141.495 136.789 141.912C138.457 142.304 139.274 144.989 138.738 148.067C141.18 146.993 143.538 147.075 144.289 148.376C145.067 149.722 143.859 151.91 141.548 153.504C142.642 153.871 143.394 154.541 143.497 155.383C143.623 156.416 142.737 157.435 141.333 158.068C141.411 158.257 141.43 158.465 141.386 158.665C141.239 159.288 140.45 159.672 139.418 159.713H126.212V159.702C125.957 159.668 125.768 159.562 125.704 159.389C125.684 159.327 125.677 159.262 125.685 159.197C125.692 159.132 125.713 159.07 125.746 159.014C125.06 158.948 124.544 158.676 124.375 158.223C124.243 157.87 124.341 157.462 124.615 157.063C122.833 156.944 121.464 156.162 121.42 155.156C121.385 154.277 122.383 153.477 123.825 153.112Z" fill="#F2F2F2"/>
<path d="M138.481 155.976C137.906 155.439 137.644 154.821 137.871 154.388C138.151 153.851 139.087 153.769 140.087 154.147C140.037 154.016 139.989 153.882 139.945 153.744C139.408 152.042 139.716 150.431 140.626 150.147C141.51 149.87 142.643 150.954 143.193 152.586C143.649 150.716 144.819 149.398 145.822 149.634C146.767 149.857 147.23 151.378 146.926 153.121C148.31 152.51 149.644 152.559 150.069 153.295C150.511 154.059 149.825 155.298 148.517 156.195C149.136 156.403 149.563 156.782 149.621 157.259C149.693 157.845 149.191 158.421 148.396 158.778C148.44 158.885 148.45 159.003 148.426 159.116C148.342 159.47 147.895 159.688 147.311 159.71H139.833V159.704C139.774 159.704 139.715 159.687 139.664 159.656C139.614 159.625 139.572 159.58 139.546 159.526C139.534 159.491 139.53 159.453 139.534 159.416C139.539 159.379 139.551 159.344 139.57 159.312C139.182 159.274 138.889 159.12 138.793 158.864C138.718 158.664 138.775 158.434 138.929 158.207C137.92 158.139 137.144 157.696 137.12 157.133C137.098 156.634 137.664 156.183 138.481 155.976Z" fill="#E4E4E4"/>
<path d="M145.903 66.9602C145.813 66.9605 145.724 66.9743 145.638 67.001C145.638 66.957 145.644 66.913 145.644 66.8679C145.643 66.4182 145.48 65.984 145.184 65.6453C144.888 65.3065 144.48 65.086 144.035 65.0244C143.59 64.9628 143.137 65.0643 142.761 65.3101C142.384 65.5559 142.11 65.9295 141.987 66.362C141.88 66.3313 141.769 66.3157 141.658 66.3159C141.344 66.3252 141.046 66.4566 140.828 66.682C140.609 66.9075 140.486 67.2093 140.486 67.5235C140.486 67.8377 140.609 68.1395 140.828 68.365C141.046 68.5904 141.344 68.7218 141.658 68.7311H141.722H145.903C146.133 68.7232 146.35 68.6264 146.51 68.4612C146.669 68.296 146.758 68.0753 146.758 67.8457C146.758 67.616 146.669 67.3954 146.51 67.2302C146.35 67.065 146.133 66.9682 145.903 66.9602Z" fill="#F2F2F2"/>
<path d="M113.378 46.6114C112.893 46.6113 112.417 46.7427 112.001 46.9916C111.773 46.0127 111.191 45.1526 110.367 44.5775C109.543 44.0024 108.536 43.7529 107.538 43.8772C107 42.6758 106.065 41.6956 104.891 41.1004C103.717 40.5051 102.374 40.3308 101.087 40.6066C99.8 40.8824 98.6464 41.5915 97.819 42.6156C96.9916 43.6397 96.5405 44.9167 96.5411 46.2334C96.5411 46.2667 96.5411 46.3011 96.5411 46.3344C96.1389 46.1442 95.6992 46.047 95.2544 46.0498C94.8097 46.0527 94.3712 46.1555 93.9716 46.3508C93.5719 46.546 93.2212 46.8286 92.9455 47.1778C92.6698 47.5269 92.4761 47.9335 92.3788 48.3677C92.2815 48.8018 92.283 49.2522 92.3832 49.6857C92.4834 50.1192 92.6798 50.5245 92.9578 50.8718C93.2358 51.2191 93.5884 51.4994 93.9893 51.692C94.3903 51.8846 94.8294 51.9845 95.2742 51.9844H113.377C114.089 51.9844 114.772 51.7015 115.275 51.198C115.778 50.6945 116.061 50.0116 116.061 49.2995C116.061 48.5875 115.778 47.9045 115.275 47.401C114.772 46.8975 114.089 46.6147 113.377 46.6147L113.378 46.6114Z" fill="#F2F2F2"/>
<path d="M85.7875 110.522C86.1082 110.522 86.4227 110.611 86.6968 110.777C86.8334 110.189 87.1652 109.663 87.6381 109.287C88.1111 108.911 88.6974 108.707 89.3015 108.707C89.4117 108.707 89.5218 108.714 89.6311 108.728C89.9851 107.938 90.5995 107.293 91.3716 106.901C92.1437 106.509 93.0267 106.394 93.8734 106.575C94.72 106.756 95.479 107.222 96.0235 107.896C96.568 108.569 96.8652 109.409 96.8653 110.275V110.342C97.1256 110.218 97.4102 110.154 97.6985 110.154C98.2081 110.166 98.6928 110.377 99.049 110.742C99.4052 111.107 99.6046 111.596 99.6046 112.106C99.6046 112.616 99.4052 113.106 99.049 113.47C98.6928 113.835 98.2081 114.046 97.6985 114.058H85.7875C85.3193 114.058 84.8704 113.872 84.5394 113.541C84.2084 113.21 84.0224 112.761 84.0224 112.293C84.0224 111.824 84.2084 111.375 84.5394 111.044C84.8704 110.713 85.3193 110.527 85.7875 110.527V110.522Z" fill="#F2F2F2"/>
<path d="M204.232 149.148L204.204 149.256C204.141 149.474 204.055 149.685 203.948 149.886C203.751 150.314 203.428 150.671 203.023 150.91C202.617 151.15 202.149 151.259 201.679 151.225C201.452 151.222 201.225 151.196 201.003 151.146L200.896 151.119L200.924 151.011C200.987 150.793 201.073 150.582 201.181 150.382C201.378 149.954 201.7 149.596 202.106 149.357C202.511 149.118 202.98 149.008 203.45 149.043C203.677 149.046 203.903 149.072 204.125 149.121L204.232 149.148ZM201.171 150.955C201.465 151.007 202.269 151.1 202.911 150.72C203.553 150.341 203.861 149.593 203.958 149.31C203.663 149.259 202.86 149.166 202.217 149.546C201.574 149.925 201.267 150.673 201.171 150.955Z" fill="#E4E4E4"/>
<path d="M202.699 151.717C201.678 152.103 200.54 151.592 200.54 151.592C200.54 151.592 201.058 150.457 202.08 150.073C203.102 149.688 204.239 150.197 204.239 150.197C204.239 150.197 203.725 151.333 202.699 151.717Z" fill="#F2F2F2"/>
<path d="M200.513 136.874V137.012C200.504 137.294 200.464 137.575 200.394 137.849C200.287 138.279 200.06 138.9 199.588 139.366C199.115 139.832 198.497 140.051 198.062 140.152C197.787 140.217 197.506 140.253 197.223 140.259H197.085V140.122C197.096 139.839 197.136 139.558 197.205 139.283C197.313 138.853 197.538 138.234 198.011 137.767C198.483 137.299 199.102 137.081 199.537 136.98C199.812 136.916 200.093 136.88 200.376 136.873L200.513 136.874ZM197.367 139.981C197.737 139.955 198.735 139.823 199.395 139.171C200.054 138.519 200.2 137.523 200.231 137.153C199.862 137.18 198.863 137.311 198.203 137.963C197.543 138.615 197.398 139.607 197.367 139.977V139.981Z" fill="#E4E4E4"/>
<path d="M199.442 140.434C198.325 141.208 196.797 140.938 196.797 140.938C196.797 140.938 197.08 139.412 198.193 138.637C199.307 137.863 200.838 138.134 200.838 138.134C200.838 138.134 200.557 139.66 199.442 140.434Z" fill="#F2F2F2"/>
<path d="M58.8086 133.266L58.8955 133.34C59.0704 133.498 59.2283 133.674 59.3667 133.865C59.6764 134.242 59.8636 134.705 59.9033 135.191C59.943 135.678 59.8333 136.165 59.5889 136.587C59.4838 136.798 59.3565 136.997 59.2089 137.181L59.136 137.269L59.0479 137.195C58.8736 137.037 58.7161 136.861 58.5778 136.67C58.2682 136.293 58.081 135.83 58.0413 135.344C58.0016 134.857 58.1113 134.37 58.3557 133.948C58.4612 133.737 58.5882 133.537 58.7346 133.353L58.8086 133.266ZM59.1081 136.939C59.2894 136.688 59.7391 135.981 59.6769 135.209C59.6146 134.438 59.0555 133.813 58.8354 133.599C58.6551 133.85 58.2043 134.558 58.2677 135.328C58.331 136.098 58.8891 136.722 59.1038 136.939H59.1081Z" fill="#E4E4E4"/>
<path d="M60.5111 135.858C60.4038 136.986 59.4175 137.817 59.4175 137.817C59.4175 137.817 58.5942 136.819 58.6973 135.693C58.8003 134.566 59.7899 133.734 59.7899 133.734C59.7899 133.734 60.6131 134.726 60.5111 135.858Z" fill="#F2F2F2"/>
<path d="M37.0845 146.289L37.1801 146.283C37.378 146.275 37.5763 146.288 37.7714 146.323C38.1786 146.367 38.5626 146.535 38.8719 146.804C39.1813 147.072 39.4013 147.429 39.5027 147.826C39.5636 148.015 39.6039 148.21 39.6229 148.407L39.6304 148.503L39.5338 148.509C39.3358 148.517 39.1376 148.504 38.9424 148.471C38.5354 148.426 38.1517 148.258 37.8426 147.989C37.5334 147.721 37.3135 147.364 37.2122 146.967C37.1518 146.778 37.1111 146.583 37.091 146.386L37.0845 146.289ZM39.42 148.323C39.3825 148.067 39.2376 147.376 38.7471 146.949C38.2566 146.521 37.5536 146.474 37.2938 146.472C37.3325 146.729 37.4774 147.419 37.9668 147.847C38.4562 148.274 39.1603 148.321 39.42 148.323Z" fill="#E4E4E4"/>
<path d="M39.6299 146.849C40.2299 147.587 40.1215 148.67 40.1215 148.67C40.1215 148.67 39.0407 148.554 38.4418 147.811C37.8429 147.067 37.9502 145.985 37.9502 145.985C37.9502 145.985 39.0267 146.109 39.6299 146.849Z" fill="#F2F2F2"/>
<path d="M171.705 143.357H171.813C172.035 143.358 172.256 143.382 172.474 143.428C172.929 143.497 173.352 143.703 173.687 144.019C174.022 144.336 174.252 144.747 174.346 145.198C174.405 145.412 174.441 145.632 174.453 145.854V145.962H174.346C174.123 145.961 173.902 145.938 173.684 145.891C173.229 145.823 172.806 145.616 172.471 145.3C172.137 144.984 171.907 144.573 171.813 144.122C171.754 143.907 171.718 143.687 171.705 143.465V143.357ZM174.232 145.745C174.201 145.455 174.07 144.671 173.539 144.173C173.009 143.674 172.224 143.586 171.93 143.572C171.961 143.862 172.091 144.646 172.621 145.143C173.151 145.641 173.941 145.731 174.232 145.745Z" fill="#E4E4E4"/>
<path d="M174.534 144.102C175.178 144.961 175.002 146.165 175.002 146.165C175.002 146.165 173.795 145.986 173.157 145.131C172.518 144.275 172.69 143.066 172.69 143.066C172.69 143.066 173.895 143.246 174.534 144.102Z" fill="#F2F2F2"/>
<path d="M141.771 153.104H91.8551L92.7634 149.814L94.537 143.392L95.6107 139.503L97.1943 133.77L100.247 122.719L101.83 116.985L112.963 76.6797H120.663L124.743 91.4518L131.796 116.985L133.379 122.719L136.432 133.77L138.015 139.503L140.863 149.814L141.771 153.104Z" fill="#161625"/>
<path d="M141.775 153.103H91.8507L92.759 149.814L94.5326 143.391C129.319 141.336 124.739 91.4502 124.739 91.4502L140.858 149.814L141.775 153.103Z" fill="#161625"/>
<path d="M151.983 153.104H81.6412V159.793H151.983V153.104Z" fill="#161625"/>
<path d="M141.771 153.103H91.8551L92.7634 149.814H140.863L141.771 153.103Z" fill="#161625"/>
<path d="M133.379 122.718C133.379 122.718 132.333 144.785 106.988 149.832L140.862 149.814L133.379 122.718Z" fill="#252531"/>
<path d="M133.379 122.718H100.247L101.83 116.984H131.796L133.379 122.718Z" fill="white"/>
<path d="M138.015 139.503H95.6107L97.1943 133.77H136.432L138.015 139.503Z" fill="white"/>
<path d="M135.714 153.104C135.714 153.104 126.39 160.144 91.8551 159.793H151.985V153.104H135.714Z" fill="#252531"/>
<path d="M162.32 159.706H70.3263C69.7019 159.706 69.1957 160.212 69.1957 160.837V160.869C69.1957 161.494 69.7019 162 70.3263 162H162.32C162.944 162 163.45 161.494 163.45 160.869V160.837C163.45 160.212 162.944 159.706 162.32 159.706Z" fill="#2D2D3A"/>
<path d="M72.0694 159.706H57.1725C56.5481 159.706 56.042 160.212 56.042 160.837V160.869C56.042 161.494 56.5481 162 57.1725 162H72.0694C72.6937 162 73.1999 161.494 73.1999 160.869V160.837C73.1999 160.212 72.6937 159.706 72.0694 159.706Z" fill="#2D2D3A"/>
<path d="M50.3436 159.706H34.692C34.0676 159.706 33.5614 160.212 33.5614 160.837V160.869C33.5614 161.494 34.0676 162 34.692 162H50.3436C50.968 162 51.4741 161.494 51.4741 160.869V160.837C51.4741 160.212 50.968 159.706 50.3436 159.706Z" fill="#2D2D3A"/>
<path d="M182.178 159.706H169.331C168.707 159.706 168.201 160.212 168.201 160.837V160.869C168.201 161.494 168.707 162 169.331 162H182.178C182.803 162 183.309 161.494 183.309 160.869V160.837C183.309 160.212 182.803 159.706 182.178 159.706Z" fill="#2D2D3A"/>
<path d="M198.975 159.706H189.203C188.578 159.706 188.072 160.212 188.072 160.837V160.869C188.072 161.494 188.578 162 189.203 162H198.975C199.599 162 200.105 161.494 200.105 160.869V160.837C200.105 160.212 199.599 159.706 198.975 159.706Z" fill="#2D2D3A"/>
</svg>
