<svg
              viewBox="0 0 24 24"
              fill="none"
              xmlns="http://www.w3.org/2000/svg"
            >
              <path
                d="M18.9636 13.7307C18.6956 13.7308 18.4313 13.7941 18.1924 13.9155C17.9534 14.037 17.7466 14.2131 17.5886 14.4296C17.4307 14.2128 17.2238 14.0364 16.9848 13.9147C16.7457 13.7931 16.4813 13.7297 16.2131 13.7296C15.647 13.7296 15.1857 13.9629 14.8793 14.4042C14.641 14.7474 14.5098 15.2058 14.5098 15.6945C14.5098 17.8054 17.2917 19.6301 17.4101 19.707C17.4633 19.7414 17.5254 19.7597 17.5888 19.7596C17.6523 19.7595 17.7143 19.741 17.7674 19.7064C17.8858 19.6293 20.6669 17.7931 20.6669 15.6943C20.6667 14.7424 20.07 13.7307 18.9636 13.7307ZM17.5878 19.0318C16.9998 18.61 15.166 17.1747 15.166 15.6943C15.166 15.4758 15.2165 14.3857 16.2131 14.3857C16.4908 14.3861 16.7571 14.4967 16.9534 14.6932C17.1497 14.8896 17.26 15.1559 17.2602 15.4337C17.2602 15.5207 17.2948 15.6041 17.3563 15.6657C17.4178 15.7272 17.5013 15.7618 17.5883 15.7618C17.6754 15.7618 17.7588 15.7272 17.8203 15.6657C17.8819 15.6041 17.9165 15.5207 17.9165 15.4337C17.9168 15.1561 18.0273 14.89 18.2236 14.6937C18.4199 14.4975 18.686 14.3871 18.9636 14.3868C19.7264 14.3868 20.0107 15.1886 20.0107 15.6941C20.0105 17.1656 18.1757 18.6077 17.5878 19.0318Z"
                fill="#28A745"
              />
              <path
                d="M17.5889 11.2192C16.5537 11.2201 15.5395 11.5114 14.6617 12.0601C13.7838 12.6087 13.0775 13.3927 12.6231 14.3228C12.5724 14.307 12.5234 14.2915 12.477 14.2765L12.0634 13.3453C13.041 12.6043 13.3095 11.4554 13.3829 10.8981C14.0475 10.7183 14.6582 9.93713 14.9029 8.90213C15.0345 8.34282 14.8417 7.82218 14.423 7.60641C14.3067 7.54608 14.1775 7.51488 14.0464 7.51547C14.0682 7.35272 14.0908 7.15355 14.1143 6.90872C14.169 6.33783 14.2039 5.76122 14.2039 5.61497C14.2039 5.00372 13.9957 4.07611 13.4117 3.30577C12.4396 2.02402 10.9055 1.755 9.7897 1.755C8.69217 1.755 7.167 2.00597 6.13387 3.20152C5.3205 4.14277 5.14369 5.29215 5.22323 5.83519C5.22614 5.85483 5.24362 5.94736 5.27156 6.0855C5.27306 6.10368 5.27607 6.12169 5.28056 6.13936C5.28131 6.14218 5.28361 6.15066 5.28736 6.16313C5.35889 6.51165 5.48095 7.0725 5.60709 7.53657C5.49294 7.54651 5.38209 7.58003 5.28155 7.635C4.87964 7.85222 4.69537 8.36157 4.82297 8.90232C5.06798 9.93924 5.68045 10.7211 6.34641 10.8992C6.42483 11.4408 6.69722 12.5638 7.63078 13.3058L7.18955 14.2569C6.87745 14.3544 6.53433 14.4501 6.17105 14.5505C3.94148 15.1669 0.890625 16.0111 0.890625 18.8193V20.8443C0.890625 21.5305 1.77131 22.2656 2.39484 22.2656H17.3606C17.4364 22.2687 17.5124 22.2706 17.5889 22.2706C18.3159 22.2728 19.0361 22.1314 19.7084 21.8547C20.3807 21.5779 20.9917 21.1712 21.5066 20.6579C22.0214 20.1446 22.4298 19.5347 22.7086 18.8632C22.9873 18.1918 23.1307 17.4719 23.1307 16.7449C23.1307 16.0179 22.9873 15.298 22.7086 14.6266C22.4298 13.9551 22.0214 13.3452 21.5066 12.8319C20.9917 12.3186 20.3807 11.9119 19.7084 11.6352C19.0361 11.3584 18.3159 11.217 17.5889 11.2192ZM6.63019 3.63085C7.32933 2.82174 8.39226 2.41149 9.78956 2.41149C11.1963 2.41149 12.239 2.84588 12.8887 3.70257C13.1206 4.01073 13.2955 4.35784 13.4053 4.72754C13.1105 4.40788 12.7695 4.13411 12.3937 3.91533C12.3504 3.89099 12.3021 3.87689 12.2524 3.87412C12.2028 3.87135 12.1532 3.87999 12.1074 3.89936C12.0616 3.91873 12.0209 3.94832 11.9883 3.98588C11.9557 4.02343 11.9322 4.06794 11.9195 4.116C11.9157 4.12913 11.5117 5.44411 8.96166 6.59729C8.0077 7.02854 7.23891 7.11361 6.67645 6.84971C6.49706 6.76257 6.33714 6.64004 6.20631 6.48951C6.07548 6.33898 5.97645 6.16354 5.91516 5.97375L5.91478 5.97254C5.89448 5.87171 5.87962 5.79094 5.87217 5.74027C5.75564 4.94415 6.33253 3.97529 6.63019 3.63085ZM6.9727 10.596C6.96875 10.5114 6.93252 10.4316 6.87147 10.373C6.81041 10.3144 6.7292 10.2815 6.64458 10.281H6.63145C6.23958 10.281 5.67839 9.66994 5.46136 8.75152C5.39409 8.46638 5.48259 8.27218 5.59331 8.21246C5.71875 8.14468 5.85225 8.26369 5.90381 8.31807C5.9608 8.37821 6.03843 8.41457 6.12111 8.41984C6.2038 8.42511 6.28542 8.39891 6.34958 8.3465C6.41375 8.29408 6.45571 8.21933 6.46704 8.13726C6.47837 8.05518 6.45823 7.97186 6.41067 7.90402C6.37083 7.83024 6.30755 7.62155 6.23822 7.35999C6.28509 7.38732 6.33403 7.41343 6.38536 7.43794C6.70287 7.5858 7.04966 7.66006 7.39987 7.65521C7.9417 7.65521 8.55436 7.50174 9.23212 7.19522C11.254 6.28083 12.067 5.24311 12.3769 4.68704C12.5264 4.79626 12.6678 4.91611 12.8001 5.04568C13.2601 5.49825 13.4941 5.97085 13.4962 6.45043C13.4476 7.04363 13.3725 7.74741 13.3056 7.91827C13.2618 7.98815 13.2459 8.07197 13.2611 8.15305C13.2762 8.23413 13.3214 8.30651 13.3876 8.35578C13.4537 8.40505 13.536 8.4276 13.618 8.41894C13.7001 8.41027 13.7758 8.37103 13.8302 8.30902C13.8912 8.23965 14.01 8.13207 14.1224 8.18991C14.2438 8.25244 14.3314 8.46558 14.2641 8.75152C14.0457 9.67557 13.4792 10.2878 13.0871 10.2811C13.0006 10.2794 12.917 10.312 12.8544 10.3717C12.7918 10.4314 12.7553 10.5134 12.7528 10.5998C12.7387 10.8698 12.6105 12.2521 11.4828 12.9492C11.0453 13.2194 10.5002 13.3563 9.86273 13.3563C9.22744 13.3563 8.68378 13.2164 8.24672 12.9402C7.13906 12.2409 6.99112 10.8647 6.9727 10.596ZM7.7243 14.6639L8.19066 13.6584C8.67314 13.8934 9.23381 14.0126 9.86278 14.0126C10.4752 14.0126 11.0227 13.9024 11.496 13.6848L11.9363 14.6758C11.9547 14.7173 11.9816 14.7545 12.0152 14.7851C12.0487 14.8157 12.0883 14.839 12.1313 14.8535C12.2061 14.8787 12.2848 14.9043 12.3693 14.931C12.3168 15.0816 12.2708 15.2351 12.2311 15.3913C11.8745 16.0422 11.049 16.7869 9.86278 16.7869C8.31502 16.7869 7.53103 15.5716 7.37348 14.8869C7.42575 14.8707 7.47745 14.8541 7.52817 14.8378C7.57106 14.8239 7.61062 14.8012 7.64436 14.7713C7.67811 14.7413 7.70532 14.7048 7.7243 14.6639ZM2.39484 21.6093C2.08383 21.6093 1.54687 21.1231 1.54687 20.8443V18.8193C1.54687 17.7933 2.03039 17.0229 3.07416 16.3949C4.01887 15.8264 5.25384 15.4846 6.34462 15.183C6.48056 15.1455 6.61275 15.1086 6.74306 15.072C6.98892 16.0702 8.04951 17.4431 9.86302 17.4431C10.6734 17.4448 11.4565 17.1502 12.0649 16.6148C12.0638 16.658 12.0631 16.7014 12.0631 16.7449C12.0638 17.7425 12.3343 18.7213 12.8459 19.5776C13.3576 20.434 14.0913 21.136 14.9694 21.6093H2.39484ZM17.5889 21.6144H17.581C17.5628 21.6112 17.5444 21.6095 17.526 21.6094H17.3719C16.0924 21.551 14.8877 20.9903 14.019 20.0492C13.1504 19.108 12.6879 17.8622 12.7321 16.5822C12.7763 15.3022 13.3234 14.0912 14.2549 13.2121C15.1863 12.333 16.4269 11.8567 17.7073 11.8866C18.9877 11.9165 20.2047 12.4501 21.0941 13.3717C21.9835 14.2933 22.4736 15.5285 22.458 16.8091C22.4424 18.0898 21.9224 19.3127 21.0108 20.2123C20.0992 21.112 18.8696 21.6158 17.5888 21.6145L17.5889 21.6144Z"
                fill="#28A745"
              />
            </svg>